<svg width="220" height="49" viewBox="0 0 220 49" xmlns="http://www.w3.org/2000/svg" xmlns:xlink="http://www.w3.org/1999/xlink"><title>Page 1</title><defs><path id="a" d="M169.498 19.94V1.024H.014V19.94h169.484z"/><path id="c" d="M0 0v35.377h37.588V0H0z"/></defs><g fill="none" fill-rule="evenodd"><g transform="translate(49.75 13.683)"><mask id="b" fill="#fff"><use xlink:href="#a"/></mask><path d="M152.386 1.48h3.586l4.958 13.86h.102l5.01-13.86h3.457l-7.222 18.003h-2.772l-7.12-18.002zm-18.963 8.95c0 .967.148 1.853.445 2.66.297.804.72 1.502 1.27 2.096.553.594 1.205 1.056 1.96 1.386.754.33 1.59.496 2.504.496.915 0 1.755-.165 2.517-.496.762-.33 1.42-.792 1.97-1.386.55-.594.974-1.292 1.27-2.097.298-.807.446-1.693.446-2.66 0-.93-.148-1.795-.445-2.592-.296-.797-.716-1.492-1.257-2.085-.543-.594-1.195-1.06-1.958-1.4-.763-.338-1.61-.507-2.543-.507s-1.775.17-2.53.508c-.754.34-1.403.805-1.945 1.4-.543.592-.962 1.287-1.26 2.084-.296.797-.444 1.66-.444 2.593zm-3.483 0c0-1.44.24-2.74.724-3.9.483-1.163 1.153-2.15 2.01-2.964.855-.814 1.872-1.44 3.05-1.882 1.178-.44 2.462-.66 3.853-.66 1.406 0 2.703.22 3.89.66 1.186.44 2.212 1.068 3.077 1.882.864.814 1.537 1.8 2.02 2.963.484 1.16.726 2.46.726 3.9 0 1.41-.242 2.692-.725 3.854-.484 1.16-1.157 2.16-2.02 3-.866.84-1.892 1.492-3.078 1.958-1.187.466-2.484.7-3.89.7-1.39 0-2.675-.234-3.853-.7-1.178-.466-2.195-1.12-3.05-1.958-.857-.84-1.527-1.84-2.01-3-.483-1.162-.724-2.445-.724-3.853zm-5.127 8.112c-.915.442-1.92.784-3.013 1.03-1.094.246-2.352.37-3.776.37-1.458 0-2.79-.234-3.992-.7-1.204-.466-2.237-1.12-3.102-1.958-.864-.84-1.54-1.84-2.022-3-.483-1.162-.724-2.445-.724-3.853 0-1.44.25-2.74.75-3.9.5-1.163 1.187-2.15 2.06-2.964.873-.814 1.902-1.44 3.09-1.882 1.185-.44 2.473-.66 3.864-.66 1.44 0 2.758.207 3.953.623 1.197.414 2.158.96 2.888 1.64l-2.212 2.39c-.458-.51-1.098-.94-1.92-1.297-.822-.356-1.716-.534-2.682-.534-.95 0-1.81.17-2.582.508-.77.34-1.428.805-1.97 1.4-.543.592-.962 1.287-1.26 2.084-.295.797-.444 1.66-.444 2.593 0 .967.15 1.853.445 2.66.297.804.72 1.502 1.27 2.096.553.594 1.222 1.056 2.01 1.386.788.33 1.683.496 2.683.496 1.373 0 2.568-.213 3.585-.636v-4.577h-3.787V9.21h6.89v9.332zm-24.304-.84c0-.54.198-1.007.596-1.397.4-.39.878-.585 1.438-.585.54 0 1.017.187 1.424.56.406.372.61.83.61 1.373 0 .542-.2 1.008-.598 1.398-.398.39-.877.586-1.436.586-.272 0-.53-.05-.776-.153-.246-.1-.463-.237-.648-.407-.187-.17-.335-.372-.446-.61-.11-.238-.165-.492-.165-.763zM86.35 16.687c.83 0 1.66-.097 2.492-.292.83-.195 1.58-.526 2.25-.99.67-.468 1.216-1.1 1.64-1.896.424-.797.636-1.805.636-3.026 0-1.288-.212-2.34-.636-3.153-.424-.815-.97-1.45-1.64-1.908-.67-.458-1.42-.772-2.25-.94-.83-.17-1.662-.255-2.492-.255h-2.67v12.46h2.67zM80.478 1.48h6.383c1.17 0 2.348.153 3.535.46 1.186.304 2.254.808 3.204 1.512.947.703 1.72 1.627 2.313 2.772.592 1.144.89 2.563.89 4.258 0 1.577-.298 2.933-.89 4.068-.594 1.136-1.366 2.07-2.314 2.797-.95.73-2.02 1.267-3.205 1.616-1.187.347-2.365.52-3.534.52H80.48V1.48zm-6.352 11.392c0 1.085-.186 2.064-.56 2.938-.372.872-.88 1.614-1.525 2.224-.642.61-1.405 1.08-2.287 1.412-.882.33-1.84.495-2.874.495s-1.992-.164-2.874-.494c-.88-.33-1.648-.802-2.3-1.412-.654-.61-1.162-1.352-1.526-2.224-.365-.874-.547-1.853-.547-2.938V1.482h3.203v11.263c0 .525.07 1.047.204 1.564.136.516.36.978.674 1.385.313.406.73.737 1.246.99.516.256 1.157.383 1.92.383.762 0 1.402-.127 1.92-.382.516-.254.932-.585 1.246-.99.312-.408.538-.87.673-1.387.135-.518.202-1.04.202-1.565V1.48h3.204v11.392zm-35.847-2.44c0 .965.147 1.85.445 2.657.296.804.72 1.502 1.27 2.096.552.594 1.204 1.056 1.96 1.386.753.33 1.588.496 2.503.496.916 0 1.755-.165 2.517-.496.763-.33 1.42-.792 1.972-1.386.55-.594.974-1.292 1.27-2.097.297-.807.445-1.693.445-2.66 0-.93-.148-1.795-.444-2.592-.297-.797-.716-1.492-1.26-2.085-.542-.594-1.194-1.06-1.957-1.4-.762-.338-1.61-.507-2.542-.507-.932 0-1.775.17-2.53.508-.754.34-1.402.805-1.945 1.4-.543.592-.962 1.287-1.258 2.084-.298.797-.446 1.66-.446 2.593zm-3.484 0c0-1.44.242-2.743.725-3.903.484-1.163 1.153-2.15 2.01-2.964.855-.814 1.873-1.44 3.05-1.882 1.178-.44 2.463-.66 3.853-.66 1.407 0 2.704.22 3.89.66 1.186.44 2.212 1.068 3.077 1.882.864.814 1.54 1.8 2.022 2.963.483 1.16.724 2.46.724 3.9 0 1.41-.24 2.692-.724 3.854-.483 1.16-1.158 2.16-2.022 3-.865.84-1.89 1.492-3.077 1.958-1.186.466-2.483.7-3.89.7-1.39 0-2.675-.234-3.852-.7-1.177-.466-2.195-1.12-3.05-1.958-.857-.84-1.526-1.84-2.01-3-.482-1.162-.724-2.445-.724-3.853zM21.003 1.48h3.204v15.153h7.654v2.848H21.004V1.48zM13.87 5.7c-.473-.645-1.092-1.115-1.855-1.41-.762-.298-1.51-.446-2.237-.446-.932 0-1.78.17-2.543.508-.763.34-1.42.805-1.97 1.4-.552.592-.975 1.287-1.27 2.084-.3.797-.447 1.66-.447 2.593 0 .984.144 1.883.432 2.696.29.814.7 1.514 1.234 2.1.534.584 1.173 1.037 1.92 1.36.746.32 1.585.482 2.517.482.967 0 1.823-.19 2.57-.572.745-.38 1.346-.887 1.804-1.513l2.568 1.805c-.797 1-1.77 1.775-2.924 2.327-1.153.55-2.5.826-4.043.826-1.407 0-2.7-.232-3.877-.698-1.178-.466-2.19-1.12-3.04-1.958-.847-.84-1.508-1.84-1.982-3C.25 13.122.014 11.84.014 10.43c0-1.44.25-2.74.75-3.9.5-1.163 1.187-2.15 2.06-2.964.872-.814 1.903-1.44 3.09-1.882 1.185-.44 2.474-.66 3.864-.66.576 0 1.178.054 1.805.165.627.108 1.23.28 1.805.508.576.228 1.12.51 1.628.85.508.34.94.747 1.297 1.22L13.87 5.703z" fill="#333" mask="url(#b)"/></g><path fill="#046CD5" d="M18.795 0L0 13.683l7.66 5.893h8.356l2.772-8.543 2.773 8.543h8.382l7.646-5.893"/><g transform="translate(0 13.683)"><mask id="d" fill="#fff"><use xlink:href="#c"/></mask><path fill="#333" mask="url(#d)" d="M29.94 5.89h.005l-6.67 5.278 2.772 8.54-7.26-5.28-7.258 5.28 2.772-8.54-6.64-5.278L0 0v21.718l18.794 13.66 18.794-13.66V0"/></g></g></svg>