<?xml version="1.0" encoding="UTF-8"?>
<svg width="445px" height="281px" viewBox="0 0 445 281" version="1.1" xmlns="http://www.w3.org/2000/svg" xmlns:xlink="http://www.w3.org/1999/xlink">
    <!-- Generator: Sketch 51.2 (57519) - http://www.bohemiancoding.com/sketch -->
    <title>Shape</title>
    <desc>Created with Sketch.</desc>
    <defs></defs>
    <g id="Page-1" stroke="none" stroke-width="1" fill="none" fill-rule="evenodd">
        <g id="calc-data-explorer-summer-2018-copy-2" transform="translate(-438.000000, -306.000000)" fill="#436A79" fill-rule="nonzero">
            <path d="M686.211556,575.921313 L872.195144,389.737635 C879.398381,382.834532 883,374.33071 883,364.026079 C883,353.721448 879.398381,345.217626 872.195144,338.314523 L850.785522,316.604766 C843.782374,309.601619 835.178507,306 825.073966,306 C815.169514,306 806.465603,309.501574 799.062275,316.604766 L660.5,455.367131 L521.737635,316.604766 C514.734487,309.601619 506.130621,306 496.026079,306 C486.121628,306 477.417716,309.501574 470.014388,316.604766 L448.604766,338.314523 C441.601619,345.317671 438,353.921538 438,364.026079 C438,374.130621 441.501574,382.734487 448.604766,389.737635 L634.488309,575.921313 C641.891637,582.92446 650.595549,586.526079 660.5,586.526079 C670.604541,586.526079 679.208408,583.024505 686.211556,575.921313 Z" id="Shape" transform="translate(660.500000, 446.263040) scale(1, -1) translate(-660.500000, -446.263040) "></path>
        </g>
    </g>
</svg>