<?xml version="1.0" encoding="UTF-8"?>
<svg width="302px" height="84px" viewBox="0 0 302 84" version="1.1" xmlns="http://www.w3.org/2000/svg" xmlns:xlink="http://www.w3.org/1999/xlink">
    <!-- Generator: Sketch 49.1 (51147) - http://www.bohemiancoding.com/sketch -->
    <title>calc_logo_white</title>
    <desc>Created with Sketch.</desc>
    <defs></defs>
    <g id="calc_logo_white" stroke="none" stroke-width="1" fill="none" fill-rule="evenodd">
        <g id="CALC-logo-/-white-/-logo-official">
            <g id="Group-2" transform="translate(0.000000, 1.000000)">
                <g id="Group">
                    <path d="M56.2028446,49.2053463 L77.7780647,55.705362 C76.3282751,61.7366358 74.0450225,66.7737227 70.9302032,70.8166229 C67.8134875,74.8614132 63.9467499,77.9129617 59.328094,79.9712686 C54.7084899,82.0286304 48.8306315,83.0577838 41.6926225,83.0577838 C33.0327612,83.0577838 25.9601777,81.8037098 20.4710791,79.2965068 C14.9819805,76.7883588 10.2448003,72.3778364 6.26048652,66.0630493 C2.2742764,59.7473172 0.282119535,51.6643519 0.282119535,41.8122635 C0.282119535,28.6770905 3.78759499,18.5830707 10.7975977,11.5283138 C17.8085486,4.4726119 27.7266642,0.945705989 40.5519444,0.945705989 C50.586688,0.945705989 58.4756671,2.96810113 64.2188818,7.01194636 C69.9611483,11.0567366 74.2270759,17.2675688 77.0166644,25.6444429 L55.2783549,30.4651147 C54.518851,28.0458009 53.7214193,26.2766776 52.8879563,25.1567999 C51.5111777,23.2789966 49.8252877,21.8349687 47.834079,20.8237711 C45.8409739,19.8125735 43.6127166,19.3069748 41.149307,19.3069748 C35.5691818,19.3069748 31.2937723,21.543895 28.324975,26.0158454 C26.0777538,29.3348415 24.9550914,34.5458166 24.9550914,41.6497158 C24.9550914,50.4499698 26.2948903,56.4831336 28.9763847,59.7463721 C31.6569308,63.0105557 35.4250562,64.6426475 40.2798126,64.6426475 C44.9894952,64.6426475 48.5490177,63.3243105 50.9593284,60.6885815 C53.3677427,58.0528525 55.1162136,54.2254224 56.2028446,49.2053463" id="Fill-1" fill="#FFFFFF"></path>
                    <path d="M124.731881,51.4267678 L115.964873,33.2752989 L109.493445,51.4267678 L124.731881,51.4267678 Z M129.838857,68.5963355 L103.478098,68.5963355 L98.8973704,81.7041021 L72.8703766,81.7041021 L104.392158,2.30052172 L126.62827,2.30052172 L159.603634,81.7041021 L133.824119,81.7041021 L129.838857,68.5963355 Z" id="Fill-4" fill="#FFFFFF"></path>
                    <polygon id="Fill-6" fill="#FFFFFF" points="163.63659 2.30014371 188.255514 2.30014371 188.255514 61.3115548 221.214759 61.3115548 221.214759 81.7037241 163.63659 81.7037241"></polygon>
                    <path d="M278.579205,49.2053463 L300.154425,55.705362 C298.704636,61.7366358 296.421383,66.7737227 293.306564,70.8166229 C290.189848,74.8614132 286.32311,77.9129617 281.704455,79.9712686 C277.08485,82.0286304 271.206992,83.0577838 264.068983,83.0577838 C255.409122,83.0577838 248.336538,81.8037098 242.84744,79.2965068 C237.358341,76.7883588 232.621161,72.3778364 228.636847,66.0630493 C224.650637,59.7473172 222.65848,51.6643519 222.65848,41.8122635 C222.65848,28.6770905 226.163956,18.5830707 233.173958,11.5283138 C240.184909,4.4726119 250.103025,0.945705989 262.928305,0.945705989 C272.963048,0.945705989 280.852028,2.96810113 286.595242,7.01194636 C292.337509,11.0567366 296.603436,17.2675688 299.393025,25.6444429 L277.654715,30.4651147 C276.895212,28.0458009 276.09778,26.2766776 275.264317,25.1567999 C273.887538,23.2789966 272.201648,21.8349687 270.21044,20.8237711 C268.217334,19.8125735 265.989077,19.3069748 263.525668,19.3069748 C257.945542,19.3069748 253.670133,21.543895 250.701336,26.0158454 C248.454114,29.3348415 247.331452,34.5458166 247.331452,41.6497158 C247.331452,50.4499698 248.671251,56.4831336 251.352745,59.7463721 C254.033291,63.0105557 257.801417,64.6426475 262.656173,64.6426475 C267.365856,64.6426475 270.925378,63.3243105 273.335689,60.6885815 C275.744103,58.0528525 277.492574,54.2254224 278.579205,49.2053463" id="Fill-8" fill="#FFFFFF"></path>
                    <g id="logo-bug-slash" transform="translate(104.037949, 2.013378)">
                        <polygon id="Fill-11" fill="#CCDE61" points="0.677815696 0.288421113 22.7648629 0.288421113 55.9962419 80.1503527 30.0163706 80.1503527"></polygon>
                        <polygon id="Fill-13" fill="#EAF994" points="0.356758034 0.261521972 12.0189865 31.4426632 22.7648629 0.261521972"></polygon>
                    </g>
                </g>
            </g>
        </g>
    </g>
</svg>