<svg height="84" viewBox="0 0 301 84" width="301" xmlns="http://www.w3.org/2000/svg"><g fill="none" fill-rule="evenodd" transform="translate(0 1)"><g fill="#092d39"><path d="m55.7846026 49.0339298 21.5225166 6.4710357c-1.4463576 6.0046547-3.7241722 11.0192381-6.8314569 15.04375-3.1092716 4.0274762-6.9665563 7.065869-11.5738411 9.1141905-4.6082782 2.0483214-10.4711921 3.0729761-17.5917219 3.0729761-8.6394039 0-15.6943708-1.2479642-21.1698675-3.7448809-5.4764901-2.4969167-10.20198677-6.8870238-14.17649008-13.1742738-3.97649006-6.2882381-5.96324503-14.3342976-5.96324503-24.1431191 0-13.0774404 3.49668874-23.126369 10.48907281-30.14975 6.9943709-7.02436901 16.8884106-10.53605949 29.6821192-10.53605949 10.0102649 0 17.8798014 2.01373809 23.6096027 6.03923809 5.7278146 4.0274762 9.9834437 10.2109762 12.765894 18.5505l-21.6854304 4.7991786c-.7569537-2.4089762-1.552649-4.1697619-2.384106-5.2843334-1.3728477-1.8704642-3.0556291-3.3081428-5.0413907-4.3140238-1.9887417-1.006869-4.2119206-1.5107976-6.6685431-1.5107976-5.5668874 0-9.8314569 2.2271667-12.7937086 6.6795238-2.2410596 3.3041905-3.360596 8.4916905-3.360596 15.5644762 0 8.7614405 1.3360927 14.7680714 4.0112583 18.0159405 2.6741722 3.2498452 6.4331126 4.8752619 11.2758278 4.8752619 4.6976821 0 8.2490066-1.3121905 10.6529801-3.9365714 2.4029802-2.624381 4.147351-6.4344762 5.2311258-11.4322619"/><path d="m162.956325 2.33635119h24.559271v58.75016671h32.878808v20.3014047h-57.438079z"/><path d="m277.417351 49.0339298 21.522517 6.4710357c-1.446358 6.0046547-3.724173 11.0192381-6.831457 15.04375-3.109272 4.0274762-6.966557 7.065869-11.573841 9.1141905-4.608279 2.0483214-10.471193 3.0729761-17.591722 3.0729761-8.639404 0-15.694371-1.2479642-21.169868-3.7448809-5.47649-2.4969167-10.201987-6.8870238-14.17649-13.1742738-3.97649-6.2882381-5.964238-14.3342976-5.964238-24.1431191 0-13.0774404 3.497682-23.126369 10.490066-30.14975 6.994371-7.02436901 16.88841-10.53605949 29.682119-10.53605949 10.010265 0 17.879801 2.01373809 23.609603 6.03923809 5.727814 4.0274762 9.983443 10.2109762 12.765894 18.5505l-21.685431 4.7991786c-.756953-2.4089762-1.552649-4.1697619-2.384106-5.2843334-1.372847-1.8704642-3.055629-3.3081428-5.04139-4.3140238-1.988742-1.006869-4.210928-1.5107976-6.668543-1.5107976-5.566888 0-9.831457 2.2271667-12.793709 6.6795238-2.24106 3.3041905-3.360596 8.4916905-3.360596 15.5644762 0 8.7614405 1.336093 14.7680714 4.011258 18.0159405 2.674172 3.2498452 6.433113 4.8752619 11.275828 4.8752619 4.697682 0 8.249007-1.3121905 10.65298-3.9365714 2.40298-2.624381 4.147351-6.4344762 5.231126-11.4322619"/><path d="m127.431457 2.33684524-11.811258 3.16091666-11.287749-3.16091666 1.589404 15.68897616 9.960596 15.4083572 8.175497-15.6583453z"/><path d="m128.858444 68.3732262-6.059603-8.6290357-.281126-8.4432738 5.067219 6.6884166z"/><path d="m128.858444 68.3732262-6.340729-17.0723095h-13.271523l6.635762-17.8667381-11.549007-31.09733336-31.9778145 79.05157146h25.7165562l4.8337753-13.0151905z"/></g><g><path d="m127.431457 2.33684524h-23.099007l11.55 31.09733336 8.063703-15.5486667z" fill="#a0ad64"/><path d="m159.409172 81.3883179-31.977814-79.05157147-11.549007 31.09733337 17.810265 47.9542381z" fill="#ccde61"/></g></g></svg>