<svg height="11" viewBox="0 0 13 11" width="13" xmlns="http://www.w3.org/2000/svg"><path d="m12.9871652 2.88058036c0 .2232154-.0781242.41294564-.234375.56919643l-7.19866074 7.19866071c-.15625078.1562508-.34598102.234375-.56919642.234375-.22321541 0-.41294565-.0781242-.56919643-.234375l-4.16852679-4.16852679c-.15625078-.15625078-.234375-.34598102-.234375-.56919642 0-.22321541.07812422-.41294565.234375-.56919643l1.13839286-1.13839286c.15625078-.15625078.34598103-.234375.56919643-.234375s.41294564.07812422.56919643.234375l2.4609375 2.46930804 5.49107146-5.49944197c.1562507-.15625078.345981-.234375.5691964-.234375s.4129456.07812422.5691964.234375l1.1383929 1.13839286c.1562508.15625078.234375.34598103.234375.56919643z" fill="#436a79" fill-rule="evenodd"/></svg>
