<?xml version="1.0" encoding="UTF-8" standalone="no"?>
<svg width="17px" height="18px" viewBox="0 0 17 18" version="1.1" xmlns="http://www.w3.org/2000/svg" xmlns:xlink="http://www.w3.org/1999/xlink">
    <!-- Generator: Sketch 41.1 (35376) - http://www.bohemiancoding.com/sketch -->
    <title>Slice 1</title>
    <desc>Created with Sketch.</desc>
    <defs></defs>
    <g id="Page-1" stroke="none" stroke-width="1" fill="none" fill-rule="evenodd">
        <g id="icon-info-BC1630">
            <g id="Upload-price-list">
                <g id="upload-03b-errors-hover">
                    <g id="icon-/-info-badge-/-red">
                        <circle id="Oval-1" fill="#BC1630" cx="8.5" cy="9.1" r="8.5"></circle>
                        <path d="M7.63593769,12.2244141 L9.67304707,12.2244141 L9.67304707,14.2 L7.63593769,14.2 L7.63593769,12.2244141 Z M6.50117207,4.54082036 C7.03893517,4.19446446 7.69973585,4.02128911 8.48359394,4.02128911 C9.51354701,4.02128911 10.36917,4.2673804 11.0504885,4.75957036 C11.731807,5.25176032 12.0724611,5.9809197 12.0724611,6.94707036 C12.0724611,7.53952124 11.9243506,8.03853969 11.6281252,8.44414067 C11.4549472,8.69023565 11.1222683,9.00468563 10.6300783,9.38750005 L10.1447268,9.76347661 C9.88040251,9.96855576 9.70494854,10.2078112 9.61835957,10.48125 C9.56367179,10.654428 9.53404969,10.9233055 9.52949238,11.2878907 L7.68378925,11.2878907 C7.71113314,10.5177045 7.78404908,9.98564605 7.90253925,9.69169927 C8.02102943,9.39775248 8.32636492,9.05937696 8.81855488,8.67656255 L9.31757832,8.28691411 C9.48164164,8.16386662 9.61380177,8.02942786 9.71406269,7.8835938 C9.89635527,7.6329415 9.98750019,7.35722811 9.98750019,7.05644536 C9.98750019,6.71008946 9.88610147,6.39450017 9.68330097,6.10966802 C9.48050048,5.82483586 9.11022423,5.68242192 8.57246113,5.68242192 C8.04381265,5.68242192 7.66897916,5.8578759 7.44794941,6.20878911 C7.22691966,6.55970232 7.11640644,6.92428201 7.11640644,7.30253911 L5.1408205,7.30253911 C5.19550828,6.00370449 5.64895426,5.08314078 6.50117207,4.54082036 Z" id="?" fill="#FFFFFF"></path>
                    </g>
                </g>
            </g>
        </g>
    </g>
</svg>