<svg height="44" viewBox="0 0 44 44" width="44" xmlns="http://www.w3.org/2000/svg"><path d="m37.3392857 21.9140625c0-3.0547028-.8253266-5.8532239-2.4760045-8.3956473l-21.4587053 21.4302455c2.5993433 1.6886245 5.4168375 2.5329241 8.452567 2.5329241 2.1060373 0 4.1124346-.4126633 6.0192522-1.2380022 1.9068176-.825339 3.5527274-1.9305176 4.937779-3.3155692s2.485487-3.040448 3.3013393-4.9662388c.8158523-1.9257909 1.2237723-3.9416748 1.2237723-6.0477121zm-28.43136159 8.5094866 21.48716519-21.45870535c-2.5613967-1.72657113-5.4073504-2.58984375-8.5379464-2.58984375-2.8080498 0-5.3978676.6925154-7.7695313 2.07756696-2.3716636 1.38505157-4.24999307 3.27286754-5.63504464 5.66350444-1.38505156 2.390637-2.07756696 4.9899413-2.07756696 7.7979911 0 3.0736761.84429959 5.9101433 2.53292411 8.5094866zm34.80636159-8.5094866c0 2.9788095-.5786772 5.8247632-1.7360491 8.5379464s-2.7084166 5.0468653-4.6531808 7.0011161-4.2689597 3.5100389-6.9726562 4.6674107c-2.7036966 1.1573719-5.5354205 1.7360491-8.4952567 1.7360491-2.9598363 0-5.7915602-.5786772-8.4952567-1.7360491-2.7036966-1.1573718-5.0278921-2.7131599-6.97265629-4.6674107s-3.49580894-4.2879329-4.6531808-7.0011161-1.73604911-5.5591369-1.73604911-8.5379464.57867725-5.82002 1.73604911-8.5237165c1.15737186-2.7036966 2.70841661-5.03263534 4.6531808-6.98688618s4.26895969-3.51003885 6.97265629-4.66741071c2.7036965-1.15737186 5.5354204-1.73604911 8.4952567-1.73604911 2.9598362 0 5.7915601.57867725 8.4952567 1.73604911 2.7036965 1.15737186 5.027892 2.71315987 6.9726562 4.66741071s3.4958089 4.28318958 4.6531808 6.98688618c1.1573719 2.7036965 1.7360491 5.544907 1.7360491 8.5237165z" fill="#981b1e" transform=""/></svg>