<?xml version="1.0" encoding="UTF-8"?>
<svg width="11px" height="13px" viewBox="0 0 11 13" version="1.1" xmlns="http://www.w3.org/2000/svg" xmlns:xlink="http://www.w3.org/1999/xlink">
    <!-- Generator: Sketch 50.2 (55047) - http://www.bohemiancoding.com/sketch -->
    <title>icon / doc-w-arrow copy</title>
    <desc>Created with Sketch.</desc>
    <defs></defs>
    <g id="Page-1" stroke="none" stroke-width="1" fill="none" fill-rule="evenodd">
        <g id="calc-data-explorer-june-2018-copy" transform="translate(-872.000000, -338.000000)">
            <g id="icon-/-doc-w-arrow" transform="translate(872.000000, 338.000000)">
                <path d="M2.8501,8.8497 L7.3501,8.8497" id="Stroke-1" stroke="#436A79" stroke-width="1" stroke-linecap="round" stroke-linejoin="round"></path>
                <path d="M2.8501,6.8497 L7.3501,6.8497" id="Stroke-2" stroke="#436A79" stroke-width="1" stroke-linecap="round" stroke-linejoin="round"></path>
                <path d="M2.8501,4.8497 L4.2671,4.8497" id="Stroke-3" stroke="#436A79" stroke-width="1" stroke-linecap="round" stroke-linejoin="round"></path>
                <path d="M9.4492,0 L6.0752,0 C5.4062,0 5.0712,0.809 5.5442,1.281 L6.1702,1.907 L5.3672,2.711 C5.0482,3.03 5.0482,3.548 5.3672,3.867 L6.3322,4.832 C6.6512,5.151 7.1692,5.151 7.4882,4.832 L8.2912,4.028 L8.9182,4.655 C9.3912,5.129 10.2002,4.794 10.2002,4.125 L10.2002,0.751 C10.2002,0.336 9.8642,0 9.4492,0" id="Fill-4" fill="#436A79" fill-rule="evenodd"></path>
                <path d="M9,5.6553 L9,9.6833 C9,10.4093 8.41,11.0003 7.684,11.0003 L2.517,11.0003 C1.791,11.0003 1.2,10.4093 1.2,9.6833 L1.2,2.5153 C1.2,1.7903 1.791,1.1993 2.517,1.1993 L4.544,1.1993 L4.544,0.0003 L2.517,0.0003 C1.129,0.0003 0,1.1283 0,2.5153 L0,9.6833 C0,11.0713 1.129,12.1993 2.517,12.1993 L7.684,12.1993 C9.071,12.1993 10.2,11.0713 10.2,9.6833 L10.2,5.6553 L9,5.6553 Z" id="Fill-7" fill="#436A79" fill-rule="evenodd"></path>
            </g>
        </g>
    </g>
</svg>