<svg width="24" height="23" viewBox="0 0 24 23" xmlns="http://www.w3.org/2000/svg"><title>Combined Shape</title><path d="M13.5 1.326l10.286 18.857c.294.522.28 1.165-.027 1.688-.31.523-.872.844-1.474.844H1.714c-.602 0-1.165-.32-1.473-.843-.307-.522-.32-1.165-.026-1.687L10.5 1.326c.295-.55.87-.897 1.5-.897s1.205.347 1.5.896zm-.178 17.79v-1.968c0-.17-.08-.256-.24-.256H10.89c-.16 0-.24.096-.24.288v1.984c0 .117.027.203.08.256.053.053.144.08.272.08h1.888c.16 0 .272-.03.336-.088.064-.06.096-.157.096-.296zm-.508-3.68l.592-7.536c.01-.075-.005-.14-.048-.192-.043-.053-.1-.08-.176-.08H10.83c-.064 0-.12.02-.168.064-.048.043-.072.107-.072.192v.032l.608 7.552c.02.117.053.2.096.248.043.048.123.072.24.072h.848c.15 0 .253-.027.312-.08.06-.053.1-.144.12-.272z" fill="#BC1630" fill-rule="evenodd"/></svg>