<?xml version="1.0" encoding="UTF-8"?>
<svg width="14px" height="10px" viewBox="0 0 14 10" version="1.1" xmlns="http://www.w3.org/2000/svg" xmlns:xlink="http://www.w3.org/1999/xlink">
    <!-- Generator: Sketch 51.2 (57519) - http://www.bohemiancoding.com/sketch -->
    <title>Shape Copy</title>
    <desc>Created with Sketch.</desc>
    <defs></defs>
    <g id="Page-1" stroke="none" stroke-width="1" fill="none" fill-rule="evenodd">
        <g id="multisearch-hilite" transform="translate(-683.000000, -705.000000)" fill="#021014" fill-rule="nonzero">
            <path d="M688.856019,714.75276 L696.745083,706.952262 C696.915028,706.791323 697,706.593065 697,706.352822 C697,706.11258 696.915028,705.914321 696.745083,705.753382 L696.239969,705.24724 C696.074744,705.083968 695.871755,705 695.63336,705 C695.399685,705 695.194335,705.081636 695.01967,705.24724 L688.24941,711.942155 L684.97561,708.707044 C684.810386,708.543772 684.607396,708.459804 684.369001,708.459804 C684.135327,708.459804 683.929976,708.54144 683.755311,708.707044 L683.250197,709.213186 C683.084972,709.376458 683,709.577049 683,709.812626 C683,710.048204 683.082612,710.248795 683.250197,710.412067 L687.63572,714.75276 C687.810386,714.916032 688.015736,715 688.24941,715 C688.487805,715 688.690795,714.918364 688.856019,714.75276 Z" id="Shape-Copy"></path>
        </g>
    </g>
</svg>