<?xml version="1.0" encoding="UTF-8"?>
<svg width="13px" height="13px" viewBox="0 0 13 13" version="1.1" xmlns="http://www.w3.org/2000/svg" xmlns:xlink="http://www.w3.org/1999/xlink">
    <!-- Generator: Sketch 41.2 (35397) - http://www.bohemiancoding.com/sketch -->
    <title>Combined Shape</title>
    <desc>Created with Sketch.</desc>
    <defs></defs>
    <g id="Upload-price-list" stroke="none" stroke-width="1" fill="none" fill-rule="evenodd">
        <g id="price-list-details" transform="translate(-543.000000, -314.000000)" fill="#825C1E">
            <path d="M549.5,327 C553.089851,327 556,324.089851 556,320.5 C556,316.910149 553.089851,314 549.5,314 C545.910149,314 543,316.910149 543,320.5 C543,324.089851 545.910149,327 549.5,327 Z M548.919712,321.4803 C548.783712,321.3443 548.699712,321.1573 548.699712,320.9503 L548.699712,316.7503 C548.699712,316.3353 549.035712,316.0003 549.449712,316.0003 C549.864712,316.0003 550.199712,316.3353 550.199712,316.7503 L550.199712,320.2003 L552.449712,320.2003 C552.864712,320.2003 553.199712,320.5353 553.199712,320.9503 C553.199712,321.3643 552.864712,321.7003 552.449712,321.7003 L549.449712,321.7003 C549.242712,321.7003 549.055712,321.6163 548.919712,321.4803 Z" id="Combined-Shape"></path>
        </g>
    </g>
</svg>