<?xml version="1.0" encoding="UTF-8"?>
<svg width="15px" height="15px" viewBox="0 0 15 15" version="1.1" xmlns="http://www.w3.org/2000/svg" xmlns:xlink="http://www.w3.org/1999/xlink">
    <!-- Generator: Sketch 41.2 (35397) - http://www.bohemiancoding.com/sketch -->
    <title>icon / info badge / outline red</title>
    <desc>Created with Sketch.</desc>
    <defs></defs>
    <g id="Upload-price-list" stroke="none" stroke-width="1" fill="none" fill-rule="evenodd">
        <g id="upload-03b-errors-hover" transform="translate(-475.000000, -613.000000)">
            <g id="icon-/-info-badge-/-outline-red" transform="translate(476.000000, 614.000000)">
                <g id="Group-2">
                    <ellipse id="Oval-1" stroke="#D1353B" cx="6.5" cy="6.88235294" rx="6.5" ry="6.42352941"></ellipse>
                    <path d="M5.59852101,8.64423529 C5.55773649,8.36690057 5.56793247,8.11404036 5.62910924,7.88564706 C5.69028602,7.65725376 5.77797142,7.44517745 5.89216807,7.24941176 C6.00636472,7.05364608 6.13483402,6.87419689 6.27757983,6.71105882 C6.42032564,6.54792075 6.55695173,6.39090272 6.68746218,6.24 C6.81797264,6.08909728 6.92604999,5.94227522 7.01169748,5.79952941 C7.09734497,5.6567836 7.14016807,5.50792234 7.14016807,5.35294118 C7.14016807,5.10007717 7.06471784,4.90839281 6.91381513,4.77788235 C6.76291241,4.6473719 6.56511047,4.58211765 6.32040336,4.58211765 C6.09201006,4.58211765 5.89012973,4.63513672 5.7147563,4.74117647 C5.53938288,4.84721622 5.37012967,4.98180311 5.2069916,5.14494118 L4.21593277,4.23952941 C4.5014244,3.90509637 4.84197001,3.63592259 5.23757983,3.432 C5.63318965,3.22807741 6.07161664,3.12611765 6.55287395,3.12611765 C6.87915009,3.12611765 7.18299019,3.16690155 7.46440336,3.24847059 C7.74581653,3.33003962 7.99051997,3.45646973 8.19852101,3.62776471 C8.40652205,3.79905968 8.56965767,4.01725358 8.68793277,4.28235294 C8.80620787,4.54745231 8.86534454,4.85944919 8.86534454,5.21835294 C8.86534454,5.47121695 8.82048224,5.69756763 8.7307563,5.89741176 C8.64103036,6.0972559 8.52887462,6.28282267 8.39428571,6.45411765 C8.25969681,6.62541262 8.11695314,6.79058744 7.96605042,6.94964706 C7.8151477,7.10870668 7.67648242,7.2738815 7.55005042,7.44517647 C7.42361842,7.61647144 7.32369785,7.79795983 7.25028571,7.98964706 C7.17687358,8.18133429 7.15240324,8.39952819 7.17687395,8.64423529 L5.59852101,8.64423529 Z M6.38157983,11.6174118 C6.0716175,11.6174118 5.81467889,11.5093344 5.6107563,11.2931765 C5.40683371,11.0770185 5.30487395,10.8098839 5.30487395,10.4917647 C5.30487395,10.1654886 5.40683371,9.89427559 5.6107563,9.67811765 C5.81467889,9.4619597 6.0716175,9.35388235 6.38157983,9.35388235 C6.69154217,9.35388235 6.95051997,9.4619597 7.15852101,9.67811765 C7.36652205,9.89427559 7.47052101,10.1654886 7.47052101,10.4917647 C7.47052101,10.8098839 7.36652205,11.0770185 7.15852101,11.2931765 C6.95051997,11.5093344 6.69154217,11.6174118 6.38157983,11.6174118 Z" id="?" fill="#D1353B"></path>
                </g>
            </g>
        </g>
    </g>
</svg>