<svg height="44" viewBox="0 0 44 44" width="44" xmlns="http://www.w3.org/2000/svg"><path d="m268.06 938.540345v-3.366323c.239571-3.322177 1.196571-6.418185 2.871-9.288022 1.955-3.349 4.606-6 7.955-7.955 3.349-1.954 7.006-2.931 10.971-2.931 3.966 0 7.623.977 10.971 2.931 3.349 1.955 6.001 4.606 7.955 7.955s2.931 7.006 2.931 10.971c0 3.966-.977 7.623-2.931 10.971-1.954 3.349-4.606 6.001-7.955 7.955-3.348 1.954-7.005 2.931-10.971 2.931-3.965 0-7.622-.977-10.971-2.931s-6-4.606-7.955-7.955c-1.674429-2.868981-2.631429-5.964865-2.871-9.287655zm36.482-6.293345c0-.532-.17-.968-.512-1.309l-2.59-2.562c-.36-.36-.787-.541-1.28-.541-.494 0-.921.181-1.281.541l-11.612 11.583-6.432-6.432c-.36-.36-.787-.54-1.28-.54-.494 0-.921.18-1.281.54l-2.59 2.562c-.341.341-.512.778-.512 1.309 0 .512.171.939.512 1.281l10.303 10.302c.36.361.787.541 1.28.541.513 0 .949-.18 1.309-.541l15.454-15.454c.342-.341.512-.768.512-1.28z" fill="#61701c" fill-rule="evenodd" transform="translate(-268 -915)"/></svg>